# Blender v2.79 (sub 0) OBJ File: 'house.blend'
# www.blender.org
mtllib house.mtl
o House_Plane.005
v -0.628420 -0.449005 -0.313817
v -0.628420 0.017415 -0.313817
v -0.198934 -0.449005 -0.644438
v -0.198934 0.017415 -0.644438
v 0.033370 -0.423390 0.550065
v 0.031553 0.050353 0.545688
v 0.461959 -0.415747 0.214858
v 0.461094 0.058063 0.210407
v 0.389881 -0.005836 0.266089
v 0.390138 -0.171720 0.267408
v 0.239429 -0.173962 0.384797
v 0.239098 -0.008093 0.383490
v 0.372574 -0.028791 0.286984
v 0.372759 -0.148620 0.287937
v 0.263876 -0.150244 0.372738
v 0.263653 -0.030422 0.371791
v -0.349122 0.297008 -0.175385
v -0.136554 0.297008 -0.339022
v 0.181264 0.323765 0.080364
v -0.030755 0.320030 0.246234
v -0.776257 -0.075090 -0.387091
v -0.231952 -0.075090 -0.806100
v 0.609772 -0.028026 0.279780
v 0.064828 -0.038083 0.704890
v -0.442296 0.179395 -0.221566
v -0.157364 0.179395 -0.440909
v 0.274414 0.211144 0.123539
v -0.010089 0.206140 0.345888
v -0.661090 0.039028 -0.330009
v -0.206230 0.039028 -0.680164
v 0.038796 0.073330 0.580591
v 0.493879 0.081553 0.225462
v -0.629157 0.019282 -0.314182
v -0.199098 0.019282 -0.645245
v 0.031713 0.052263 0.546467
v 0.461832 0.059984 0.210739
v -0.481258 0.174562 -0.240877
v -0.166066 0.174562 -0.483515
v 0.313362 0.208455 0.141558
v -0.001499 0.202906 0.387534
v -0.723289 0.019288 -0.360838
v 0.052765 0.055557 0.647418
v -0.220122 0.019288 -0.748179
v 0.556431 0.064777 0.254488
v -0.210616 0.017447 -0.635437
v -0.210616 -0.448973 -0.635437
v 0.450277 -0.415715 0.223859
v 0.449412 0.058095 0.219408
vn -0.6100 0.0000 -0.7924
vn 0.6171 0.0074 0.7869
vn -0.7938 0.0000 0.6081
vn 0.0187 -0.9995 0.0243
vn 0.7273 0.3714 -0.5772
vn 0.4360 0.0079 0.8999
vn 0.6159 0.0132 0.7877
vn 0.6143 0.0030 0.7891
vn 0.6093 0.0086 0.7929
vn 0.6144 0.0074 0.7890
vn 0.6003 -0.2291 0.7663
vn 0.5925 0.2503 0.7657
vn 0.7667 0.0063 0.6420
vn -0.0379 0.9989 -0.0259
vn -0.7576 0.3465 0.5531
vn 0.6235 -0.6330 -0.4588
vn 0.3229 -0.8484 0.4195
vn -0.0749 0.9924 -0.0973
vn 0.0367 0.9969 0.0695
vn -0.3875 -0.8569 0.3398
vn 0.1841 -0.9534 0.2391
vn -0.5966 -0.6349 0.4909
vn 0.4726 0.6280 0.6183
vn -0.3066 -0.8578 -0.4125
vn -0.4776 0.6220 -0.6205
vn 0.4200 0.7177 0.5554
vn 0.6932 0.4569 -0.5574
vn -0.7137 0.4529 0.5343
vn -0.4288 0.7113 -0.5570
vn -0.6315 0.6251 0.4588
vn -0.3555 0.8265 -0.4365
vn -0.3287 0.8424 -0.4270
vn -0.6297 0.6244 0.4622
vn 0.6009 0.6276 -0.4949
vn 0.3119 0.8530 0.4185
vn 0.4171 -0.8613 -0.2901
vn -0.1567 -0.9621 -0.2231
vn -0.2136 0.9696 0.1193
vn 0.1037 0.9857 -0.1330
vn 0.7927 0.0000 -0.6097
vn 0.0212 -0.9993 0.0311
vn 0.6185 0.0096 0.7857
vn -0.7932 0.0026 0.6090
vn 0.0256 -0.9996 0.0100
vn 0.7254 0.3799 -0.5740
vn 0.4362 0.0080 0.8998
vn 0.6144 0.0109 0.7889
vn 0.6153 -0.0025 0.7883
vn 0.6119 0.0072 0.7909
vn 0.6143 0.0072 0.7891
vn 0.6002 -0.2294 0.7662
vn -0.0310 0.9987 -0.0402
vn -0.7460 0.3748 0.5505
vn 0.6427 -0.6048 -0.4703
vn 0.0370 0.9969 0.0698
vn -0.3727 -0.8680 0.3281
vn -0.5933 -0.6405 0.4877
vn 0.4727 0.6273 0.6189
vn -0.3052 -0.8588 -0.4116
vn 0.4197 0.7187 0.5544
vn 0.6927 0.4584 -0.5568
vn -0.7226 0.4326 0.5391
vn -0.6471 0.5994 0.4711
vn -0.3556 0.8264 -0.4366
vn -0.6533 0.5920 0.4720
vn 0.5991 0.6311 -0.4926
vn 0.3105 0.8538 0.4180
vn 0.4524 -0.8338 -0.3163
vn -0.1553 -0.9627 -0.2217
vn -0.1592 0.9844 0.0749
vn 0.1436 0.9758 -0.1647
vn 0.7916 -0.0043 -0.6110
usemtl Material.001
s off
f 2//1 3//1 1//1
f 6//2 11//2 12//2
f 5//3 2//3 1//3
f 7//4 1//4 3//4
f 18//5 27//5 26//5
f 12//6 15//6 16//6
f 7//7 11//7 5//7
f 8//8 12//8 9//8
f 8//9 10//9 7//9
f 14//10 16//10 15//10
f 10//11 15//11 11//11
f 12//12 13//12 9//12
f 10//13 13//13 14//13
f 19//14 17//14 20//14
f 17//15 28//15 20//15
f 2//16 24//16 21//16
f 2//17 22//17 4//17
f 25//18 38//18 37//18
f 27//19 40//19 39//19
f 30//20 44//20 32//20
f 30//21 41//21 43//21
f 4//22 23//22 8//22
f 20//23 27//23 19//23
f 8//24 24//24 6//24
f 18//25 25//25 17//25
f 23//26 31//26 24//26
f 23//27 30//27 32//27
f 24//28 29//28 21//28
f 22//29 29//29 30//29
f 30//30 36//30 32//30
f 31//31 36//31 35//31
f 41//32 38//32 43//32
f 42//33 37//33 41//33
f 44//34 38//34 39//34
f 42//35 39//35 40//35
f 29//36 42//36 41//36
f 32//37 42//37 31//37
f 28//38 37//38 40//38
f 26//39 39//39 38//39
f 45//40 47//40 46//40
f 4//41 48//41 45//41
f 2//1 4//1 3//1
f 6//42 5//42 11//42
f 5//43 6//43 2//43
f 7//44 5//44 1//44
f 18//45 19//45 27//45
f 12//46 11//46 15//46
f 7//47 10//47 11//47
f 8//48 6//48 12//48
f 8//49 9//49 10//49
f 14//50 13//50 16//50
f 10//51 14//51 15//51
f 12//12 16//12 13//12
f 10//13 9//13 13//13
f 19//52 18//52 17//52
f 17//53 25//53 28//53
f 2//54 6//54 24//54
f 2//17 21//17 22//17
f 25//18 26//18 38//18
f 27//55 28//55 40//55
f 30//56 43//56 44//56
f 30//21 29//21 41//21
f 4//57 22//57 23//57
f 20//58 28//58 27//58
f 8//59 23//59 24//59
f 18//25 26//25 25//25
f 23//60 32//60 31//60
f 23//61 22//61 30//61
f 24//62 31//62 29//62
f 22//29 21//29 29//29
f 30//63 34//63 36//63
f 31//64 32//64 36//64
f 41//32 37//32 38//32
f 42//65 40//65 37//65
f 44//66 43//66 38//66
f 42//67 44//67 39//67
f 29//68 31//68 42//68
f 32//69 44//69 42//69
f 28//70 25//70 37//70
f 26//71 27//71 39//71
f 45//72 48//72 47//72
f 4//41 8//41 48//41
l 35 33
l 33 34
